<?xml version="1.0" encoding="iso-8859-1"?>
<!-- Uploaded to: SVG Repo, www.svgrepo.com, Generator: SVG Repo Mixer Tools -->
<svg version="1.1" id="Layer_1" xmlns="http://www.w3.org/2000/svg" xmlns:xlink="http://www.w3.org/1999/xlink" 
	 viewBox="0 0 297 297" xml:space="preserve">
<g>
	<g>
		<circle style="fill:#16A085;" cx="148.5" cy="148.5" r="148.5"/>
	</g>
	<g>
		<path style="fill:#178E77;" d="M297,148.5c0-5.695-0.332-11.312-0.956-16.84l-87.975-87.975L86.687,251.02l45.03,45.03
			c5.51,0.62,11.107,0.95,16.783,0.95C230.514,297,297,230.514,297,148.5z"/>
	</g>
	<g>
		<path style="fill:#34495E;" d="M214.5,55.958c0-8.123-6.585-14.708-14.708-14.708H97.208c-8.123,0-14.708,6.585-14.708,14.708
			V62.5h132V55.958z"/>
	</g>
	<g>
		<rect x="82.5" y="62.5" style="fill:#D0D5D9;" width="132" height="159.5"/>
	</g>
	<g>
		<path style="fill:#34495E;" d="M82.5,222v19.042c0,8.123,6.585,14.708,14.708,14.708h102.583c8.123,0,14.708-6.585,14.708-14.708
			V222H82.5z"/>
	</g>
	<g>
		<path style="fill:#3498DB;" d="M116.492,182.545h60.574c2.914,0,5.385-1.714,5.797-4.021l7.168-40.132
			c0.504-2.822-2.234-5.346-5.797-5.346h-74.91c-3.564,0-6.301,2.525-5.797,5.346l7.168,40.132
			C111.107,180.831,113.578,182.545,116.492,182.545z"/>
	</g>
	<g>
		<path style="fill:#34495E;" d="M102.078,139.232h89.403c2.65,0,4.798-2.148,4.798-4.798v-2.778c0-2.65-2.148-4.798-4.798-4.798
			h-89.403c-2.65,0-4.798,2.148-4.798,4.798v2.778C97.279,137.084,99.428,139.232,102.078,139.232z"/>
	</g>
	<g>
		<path style="fill:#5065A1;" d="M108.541,132.595l-1.473-1.473c-1.405-1.405-1.405-3.684,0-5.089l25.537-25.537
			c1.405-1.405,3.684-1.405,5.089,0l1.473,1.473c1.405,1.405,1.405,3.684,0,5.089l-25.537,25.537
			C112.225,134,109.946,134,108.541,132.595z"/>
	</g>
	<g>
		<path style="fill:#5065A1;" d="M185.018,132.595l1.473-1.473c1.405-1.405,1.405-3.684,0-5.089l-25.537-25.537
			c-1.405-1.405-3.684-1.405-5.089,0l-1.473,1.473c-1.405,1.405-1.405,3.684,0,5.089l25.537,25.537
			C181.334,134,183.613,134,185.018,132.595z"/>
	</g>
</g>
</svg>